<mxfile host="app.diagrams.net" modified="2024-04-27T05:39:07.323Z" agent="Mozilla/5.0 (Macintosh; Intel Mac OS X 10_15_7) AppleWebKit/537.36 (KHTML, like Gecko) Chrome/121.0.0.0 Safari/537.36 OPR/107.0.0.0" etag="fC02z1zzMZSyAEKCmPJp" version="24.2.5" type="device">
  <diagram name="PÃ¡gina-1" id="nzqcxuQTGZ-avfFZ5H-J">
    <mxGraphModel dx="609" dy="418" grid="1" gridSize="10" guides="1" tooltips="1" connect="1" arrows="1" fold="1" page="1" pageScale="1" pageWidth="827" pageHeight="1169" math="0" shadow="0">
      <root>
        <mxCell id="0" />
        <mxCell id="1" parent="0" />
        <mxCell id="F-AHEvxYK34EEoUcOG0l-3" style="edgeStyle=orthogonalEdgeStyle;rounded=0;orthogonalLoop=1;jettySize=auto;html=1;exitX=0.5;exitY=1;exitDx=0;exitDy=0;" parent="1" source="F-AHEvxYK34EEoUcOG0l-1" edge="1">
          <mxGeometry relative="1" as="geometry">
            <mxPoint x="220" y="220" as="targetPoint" />
          </mxGeometry>
        </mxCell>
        <mxCell id="F-AHEvxYK34EEoUcOG0l-1" value="Inicio" style="ellipse;whiteSpace=wrap;html=1;" parent="1" vertex="1">
          <mxGeometry x="160" y="90" width="120" height="80" as="geometry" />
        </mxCell>
        <mxCell id="F-AHEvxYK34EEoUcOG0l-2" value="Se muestra el menu" style="rounded=0;whiteSpace=wrap;html=1;" parent="1" vertex="1">
          <mxGeometry x="150" y="220" width="150" height="80" as="geometry" />
        </mxCell>
        <mxCell id="F-AHEvxYK34EEoUcOG0l-4" value="Definir temperatura y zonas" style="rounded=1;whiteSpace=wrap;html=1;" parent="1" vertex="1">
          <mxGeometry x="140" y="340" width="150" height="60" as="geometry" />
        </mxCell>
        <mxCell id="F-AHEvxYK34EEoUcOG0l-19" style="edgeStyle=orthogonalEdgeStyle;rounded=0;orthogonalLoop=1;jettySize=auto;html=1;exitX=0.5;exitY=1;exitDx=0;exitDy=0;entryX=0.5;entryY=0;entryDx=0;entryDy=0;" parent="1" source="F-AHEvxYK34EEoUcOG0l-5" target="F-AHEvxYK34EEoUcOG0l-6" edge="1">
          <mxGeometry relative="1" as="geometry" />
        </mxCell>
        <mxCell id="F-AHEvxYK34EEoUcOG0l-25" style="edgeStyle=orthogonalEdgeStyle;rounded=0;orthogonalLoop=1;jettySize=auto;html=1;entryX=-0.008;entryY=0.65;entryDx=0;entryDy=0;entryPerimeter=0;" parent="1" source="F-AHEvxYK34EEoUcOG0l-5" target="F-AHEvxYK34EEoUcOG0l-14" edge="1">
          <mxGeometry relative="1" as="geometry">
            <mxPoint x="350" y="510" as="targetPoint" />
            <Array as="points">
              <mxPoint x="320" y="510" />
              <mxPoint x="320" y="511" />
              <mxPoint x="369" y="511" />
            </Array>
          </mxGeometry>
        </mxCell>
        <mxCell id="F-AHEvxYK34EEoUcOG0l-5" value="Paso 1" style="rhombus;whiteSpace=wrap;html=1;" parent="1" vertex="1">
          <mxGeometry x="120" y="470" width="170" height="80" as="geometry" />
        </mxCell>
        <mxCell id="F-AHEvxYK34EEoUcOG0l-26" style="edgeStyle=orthogonalEdgeStyle;rounded=0;orthogonalLoop=1;jettySize=auto;html=1;entryX=0;entryY=0.5;entryDx=0;entryDy=0;" parent="1" source="F-AHEvxYK34EEoUcOG0l-6" target="F-AHEvxYK34EEoUcOG0l-12" edge="1">
          <mxGeometry relative="1" as="geometry" />
        </mxCell>
        <mxCell id="F-AHEvxYK34EEoUcOG0l-6" value="&lt;span style=&quot;color: rgb(0, 0, 0); font-family: Helvetica; font-size: 12px; font-style: normal; font-variant-ligatures: normal; font-variant-caps: normal; font-weight: 400; letter-spacing: normal; orphans: 2; text-align: center; text-indent: 0px; text-transform: none; widows: 2; word-spacing: 0px; -webkit-text-stroke-width: 0px; white-space: normal; background-color: rgb(251, 251, 251); text-decoration-thickness: initial; text-decoration-style: initial; text-decoration-color: initial; display: inline !important; float: none;&quot;&gt;Paso2&lt;/span&gt;" style="rhombus;whiteSpace=wrap;html=1;" parent="1" vertex="1">
          <mxGeometry x="120" y="620" width="170" height="80" as="geometry" />
        </mxCell>
        <mxCell id="F-AHEvxYK34EEoUcOG0l-20" style="edgeStyle=orthogonalEdgeStyle;rounded=0;orthogonalLoop=1;jettySize=auto;html=1;exitX=0.5;exitY=1;exitDx=0;exitDy=0;entryX=0.5;entryY=0;entryDx=0;entryDy=0;" parent="1" source="F-AHEvxYK34EEoUcOG0l-7" target="F-AHEvxYK34EEoUcOG0l-9" edge="1">
          <mxGeometry relative="1" as="geometry" />
        </mxCell>
        <mxCell id="F-AHEvxYK34EEoUcOG0l-27" style="edgeStyle=orthogonalEdgeStyle;rounded=0;orthogonalLoop=1;jettySize=auto;html=1;entryX=0;entryY=0.5;entryDx=0;entryDy=0;" parent="1" source="F-AHEvxYK34EEoUcOG0l-7" target="F-AHEvxYK34EEoUcOG0l-13" edge="1">
          <mxGeometry relative="1" as="geometry">
            <mxPoint x="350" y="800" as="targetPoint" />
          </mxGeometry>
        </mxCell>
        <mxCell id="F-AHEvxYK34EEoUcOG0l-7" value="&lt;span style=&quot;color: rgb(0, 0, 0); font-family: Helvetica; font-size: 12px; font-style: normal; font-variant-ligatures: normal; font-variant-caps: normal; font-weight: 400; letter-spacing: normal; orphans: 2; text-align: center; text-indent: 0px; text-transform: none; widows: 2; word-spacing: 0px; -webkit-text-stroke-width: 0px; white-space: normal; background-color: rgb(251, 251, 251); text-decoration-thickness: initial; text-decoration-style: initial; text-decoration-color: initial; display: inline !important; float: none;&quot;&gt;Paso 3&lt;/span&gt;" style="rhombus;whiteSpace=wrap;html=1;" parent="1" vertex="1">
          <mxGeometry x="110" y="760" width="170" height="80" as="geometry" />
        </mxCell>
        <mxCell id="F-AHEvxYK34EEoUcOG0l-21" value="" style="edgeStyle=orthogonalEdgeStyle;rounded=0;orthogonalLoop=1;jettySize=auto;html=1;" parent="1" source="F-AHEvxYK34EEoUcOG0l-9" target="F-AHEvxYK34EEoUcOG0l-10" edge="1">
          <mxGeometry relative="1" as="geometry" />
        </mxCell>
        <mxCell id="F-AHEvxYK34EEoUcOG0l-28" style="edgeStyle=orthogonalEdgeStyle;rounded=0;orthogonalLoop=1;jettySize=auto;html=1;entryX=0;entryY=0.5;entryDx=0;entryDy=0;" parent="1" source="F-AHEvxYK34EEoUcOG0l-9" target="F-AHEvxYK34EEoUcOG0l-15" edge="1">
          <mxGeometry relative="1" as="geometry" />
        </mxCell>
        <mxCell id="F-AHEvxYK34EEoUcOG0l-9" value="&lt;span style=&quot;color: rgb(0, 0, 0); font-family: Helvetica; font-size: 12px; font-style: normal; font-variant-ligatures: normal; font-variant-caps: normal; font-weight: 400; letter-spacing: normal; orphans: 2; text-align: center; text-indent: 0px; text-transform: none; widows: 2; word-spacing: 0px; -webkit-text-stroke-width: 0px; white-space: normal; background-color: rgb(251, 251, 251); text-decoration-thickness: initial; text-decoration-style: initial; text-decoration-color: initial; display: inline !important; float: none;&quot;&gt;Paso 4&lt;/span&gt;" style="rhombus;whiteSpace=wrap;html=1;" parent="1" vertex="1">
          <mxGeometry x="110" y="920" width="170" height="80" as="geometry" />
        </mxCell>
        <mxCell id="F-AHEvxYK34EEoUcOG0l-30" style="edgeStyle=orthogonalEdgeStyle;rounded=0;orthogonalLoop=1;jettySize=auto;html=1;exitX=1;exitY=0.5;exitDx=0;exitDy=0;" parent="1" source="F-AHEvxYK34EEoUcOG0l-10" edge="1">
          <mxGeometry relative="1" as="geometry">
            <mxPoint x="410" y="1140" as="targetPoint" />
          </mxGeometry>
        </mxCell>
        <mxCell id="F-AHEvxYK34EEoUcOG0l-10" value="&lt;span style=&quot;color: rgb(0, 0, 0); font-family: Helvetica; font-size: 12px; font-style: normal; font-variant-ligatures: normal; font-variant-caps: normal; font-weight: 400; letter-spacing: normal; orphans: 2; text-align: center; text-indent: 0px; text-transform: none; widows: 2; word-spacing: 0px; -webkit-text-stroke-width: 0px; white-space: normal; background-color: rgb(251, 251, 251); text-decoration-thickness: initial; text-decoration-style: initial; text-decoration-color: initial; display: inline !important; float: none;&quot;&gt;Paso 5&lt;/span&gt;" style="rhombus;whiteSpace=wrap;html=1;" parent="1" vertex="1">
          <mxGeometry x="110" y="1100" width="170" height="80" as="geometry" />
        </mxCell>
        <mxCell id="F-AHEvxYK34EEoUcOG0l-31" style="edgeStyle=orthogonalEdgeStyle;rounded=0;orthogonalLoop=1;jettySize=auto;html=1;" parent="1" source="F-AHEvxYK34EEoUcOG0l-11" edge="1">
          <mxGeometry relative="1" as="geometry">
            <mxPoint x="410" y="1310" as="targetPoint" />
          </mxGeometry>
        </mxCell>
        <mxCell id="sIw8Q_af0YDgrMHq1Qj5-13" style="edgeStyle=orthogonalEdgeStyle;rounded=0;orthogonalLoop=1;jettySize=auto;html=1;" edge="1" parent="1" source="F-AHEvxYK34EEoUcOG0l-11" target="sIw8Q_af0YDgrMHq1Qj5-12">
          <mxGeometry relative="1" as="geometry" />
        </mxCell>
        <mxCell id="F-AHEvxYK34EEoUcOG0l-11" value="Paso 6" style="rhombus;whiteSpace=wrap;html=1;" parent="1" vertex="1">
          <mxGeometry x="120" y="1270" width="170" height="80" as="geometry" />
        </mxCell>
        <mxCell id="sIw8Q_af0YDgrMHq1Qj5-2" style="edgeStyle=orthogonalEdgeStyle;rounded=0;orthogonalLoop=1;jettySize=auto;html=1;exitX=1;exitY=0.5;exitDx=0;exitDy=0;" edge="1" parent="1" source="F-AHEvxYK34EEoUcOG0l-12">
          <mxGeometry relative="1" as="geometry">
            <mxPoint x="690" y="660" as="targetPoint" />
          </mxGeometry>
        </mxCell>
        <mxCell id="F-AHEvxYK34EEoUcOG0l-12" value="Definir temperatura por zonas" style="rounded=1;whiteSpace=wrap;html=1;" parent="1" vertex="1">
          <mxGeometry x="400" y="630" width="150" height="60" as="geometry" />
        </mxCell>
        <mxCell id="sIw8Q_af0YDgrMHq1Qj5-5" style="edgeStyle=orthogonalEdgeStyle;rounded=0;orthogonalLoop=1;jettySize=auto;html=1;exitX=1;exitY=0.5;exitDx=0;exitDy=0;" edge="1" parent="1" source="F-AHEvxYK34EEoUcOG0l-13">
          <mxGeometry relative="1" as="geometry">
            <mxPoint x="690" y="805" as="targetPoint" />
          </mxGeometry>
        </mxCell>
        <mxCell id="F-AHEvxYK34EEoUcOG0l-13" value="Definir temperaturas especificas para horas definidas" style="rounded=1;whiteSpace=wrap;html=1;" parent="1" vertex="1">
          <mxGeometry x="400" y="770" width="150" height="70" as="geometry" />
        </mxCell>
        <mxCell id="sIw8Q_af0YDgrMHq1Qj5-1" style="edgeStyle=orthogonalEdgeStyle;rounded=0;orthogonalLoop=1;jettySize=auto;html=1;exitX=1;exitY=0.5;exitDx=0;exitDy=0;" edge="1" parent="1" source="F-AHEvxYK34EEoUcOG0l-14">
          <mxGeometry relative="1" as="geometry">
            <mxPoint x="660" y="510" as="targetPoint" />
          </mxGeometry>
        </mxCell>
        <mxCell id="F-AHEvxYK34EEoUcOG0l-14" value="Definir zonas de la casa" style="rounded=1;whiteSpace=wrap;html=1;" parent="1" vertex="1">
          <mxGeometry x="400" y="480" width="150" height="60" as="geometry" />
        </mxCell>
        <mxCell id="F-AHEvxYK34EEoUcOG0l-15" value="Sensores" style="rounded=1;whiteSpace=wrap;html=1;" parent="1" vertex="1">
          <mxGeometry x="414" y="930" width="146" height="60" as="geometry" />
        </mxCell>
        <mxCell id="F-AHEvxYK34EEoUcOG0l-16" value="redefinir zonas" style="rounded=1;whiteSpace=wrap;html=1;" parent="1" vertex="1">
          <mxGeometry x="414" y="1110" width="146" height="60" as="geometry" />
        </mxCell>
        <mxCell id="F-AHEvxYK34EEoUcOG0l-17" style="edgeStyle=orthogonalEdgeStyle;rounded=0;orthogonalLoop=1;jettySize=auto;html=1;exitX=0.5;exitY=1;exitDx=0;exitDy=0;entryX=0.559;entryY=0.063;entryDx=0;entryDy=0;entryPerimeter=0;" parent="1" source="F-AHEvxYK34EEoUcOG0l-4" target="F-AHEvxYK34EEoUcOG0l-5" edge="1">
          <mxGeometry relative="1" as="geometry" />
        </mxCell>
        <mxCell id="F-AHEvxYK34EEoUcOG0l-18" style="edgeStyle=orthogonalEdgeStyle;rounded=0;orthogonalLoop=1;jettySize=auto;html=1;exitX=0.5;exitY=1;exitDx=0;exitDy=0;entryX=0.547;entryY=-0.05;entryDx=0;entryDy=0;entryPerimeter=0;" parent="1" source="F-AHEvxYK34EEoUcOG0l-2" target="F-AHEvxYK34EEoUcOG0l-4" edge="1">
          <mxGeometry relative="1" as="geometry" />
        </mxCell>
        <mxCell id="F-AHEvxYK34EEoUcOG0l-23" style="edgeStyle=orthogonalEdgeStyle;rounded=0;orthogonalLoop=1;jettySize=auto;html=1;entryX=0.441;entryY=0.038;entryDx=0;entryDy=0;entryPerimeter=0;" parent="1" source="F-AHEvxYK34EEoUcOG0l-10" target="F-AHEvxYK34EEoUcOG0l-11" edge="1">
          <mxGeometry relative="1" as="geometry" />
        </mxCell>
        <mxCell id="sIw8Q_af0YDgrMHq1Qj5-11" style="edgeStyle=orthogonalEdgeStyle;rounded=0;orthogonalLoop=1;jettySize=auto;html=1;" edge="1" parent="1" source="F-AHEvxYK34EEoUcOG0l-24" target="sIw8Q_af0YDgrMHq1Qj5-10">
          <mxGeometry relative="1" as="geometry" />
        </mxCell>
        <mxCell id="F-AHEvxYK34EEoUcOG0l-24" value="Redefinir temperatura predeterminada como la temperatura en ciertas horas" style="rounded=1;whiteSpace=wrap;html=1;" parent="1" vertex="1">
          <mxGeometry x="414" y="1280" width="146" height="60" as="geometry" />
        </mxCell>
        <mxCell id="F-AHEvxYK34EEoUcOG0l-32" style="edgeStyle=orthogonalEdgeStyle;rounded=0;orthogonalLoop=1;jettySize=auto;html=1;entryX=0.571;entryY=0.025;entryDx=0;entryDy=0;entryPerimeter=0;" parent="1" source="F-AHEvxYK34EEoUcOG0l-6" target="F-AHEvxYK34EEoUcOG0l-7" edge="1">
          <mxGeometry relative="1" as="geometry" />
        </mxCell>
        <mxCell id="sIw8Q_af0YDgrMHq1Qj5-3" value="Definir la cantidad de zonas en la casa y separar cada habitacion por una zona distinta" style="rounded=1;whiteSpace=wrap;html=1;" vertex="1" parent="1">
          <mxGeometry x="660" y="460" width="180" height="90" as="geometry" />
        </mxCell>
        <mxCell id="sIw8Q_af0YDgrMHq1Qj5-4" value="Definir a que temperatura se va a encontrar cada habitacion durante todo el dia" style="rounded=1;whiteSpace=wrap;html=1;" vertex="1" parent="1">
          <mxGeometry x="690" y="610" width="180" height="90" as="geometry" />
        </mxCell>
        <mxCell id="sIw8Q_af0YDgrMHq1Qj5-6" value="Definir a ciertas hora,&amp;nbsp; que habotaciones van a tener una cantidad&amp;nbsp; de temperatura especifica, esta e temperatura designada por x cantidad de horas o minutos" style="rounded=1;whiteSpace=wrap;html=1;" vertex="1" parent="1">
          <mxGeometry x="690" y="760" width="180" height="90" as="geometry" />
        </mxCell>
        <mxCell id="sIw8Q_af0YDgrMHq1Qj5-7" value="Tener sensores que monitoren que la temperatura sea la establecida a la hora, si no poner la temperatura predeterminada" style="rounded=1;whiteSpace=wrap;html=1;" vertex="1" parent="1">
          <mxGeometry x="700" y="910" width="180" height="90" as="geometry" />
        </mxCell>
        <mxCell id="sIw8Q_af0YDgrMHq1Qj5-8" style="edgeStyle=orthogonalEdgeStyle;rounded=0;orthogonalLoop=1;jettySize=auto;html=1;entryX=0.007;entryY=0.559;entryDx=0;entryDy=0;entryPerimeter=0;" edge="1" parent="1" source="F-AHEvxYK34EEoUcOG0l-15" target="sIw8Q_af0YDgrMHq1Qj5-7">
          <mxGeometry relative="1" as="geometry" />
        </mxCell>
        <mxCell id="sIw8Q_af0YDgrMHq1Qj5-9" value="Poder redefinir ciertas zonas para que sean mas amplias o mas pequeÃ±as" style="rounded=1;whiteSpace=wrap;html=1;" vertex="1" parent="1">
          <mxGeometry x="700" y="1100" width="180" height="90" as="geometry" />
        </mxCell>
        <mxCell id="sIw8Q_af0YDgrMHq1Qj5-10" value="Poder redefinir la temperatura predeterminada y la temperatura de las horas especificas" style="rounded=1;whiteSpace=wrap;html=1;" vertex="1" parent="1">
          <mxGeometry x="700" y="1280" width="180" height="90" as="geometry" />
        </mxCell>
        <mxCell id="sIw8Q_af0YDgrMHq1Qj5-14" style="edgeStyle=orthogonalEdgeStyle;rounded=0;orthogonalLoop=1;jettySize=auto;html=1;" edge="1" parent="1" source="sIw8Q_af0YDgrMHq1Qj5-12">
          <mxGeometry relative="1" as="geometry">
            <mxPoint x="420" y="1470" as="targetPoint" />
          </mxGeometry>
        </mxCell>
        <mxCell id="sIw8Q_af0YDgrMHq1Qj5-12" value="Paso 7" style="rhombus;whiteSpace=wrap;html=1;" vertex="1" parent="1">
          <mxGeometry x="120" y="1430" width="170" height="80" as="geometry" />
        </mxCell>
        <mxCell id="sIw8Q_af0YDgrMHq1Qj5-16" style="edgeStyle=orthogonalEdgeStyle;rounded=0;orthogonalLoop=1;jettySize=auto;html=1;" edge="1" parent="1" source="sIw8Q_af0YDgrMHq1Qj5-15">
          <mxGeometry relative="1" as="geometry">
            <mxPoint x="700" y="1470" as="targetPoint" />
          </mxGeometry>
        </mxCell>
        <mxCell id="sIw8Q_af0YDgrMHq1Qj5-15" value="Salir del programa" style="rounded=1;whiteSpace=wrap;html=1;" vertex="1" parent="1">
          <mxGeometry x="424" y="1440" width="146" height="60" as="geometry" />
        </mxCell>
        <mxCell id="sIw8Q_af0YDgrMHq1Qj5-17" value="Poder redefinir la temperatura predeterminada y la temperatura de las horas especificas" style="rounded=1;whiteSpace=wrap;html=1;" vertex="1" parent="1">
          <mxGeometry x="700" y="1425" width="180" height="90" as="geometry" />
        </mxCell>
      </root>
    </mxGraphModel>
  </diagram>
</mxfile>
